P2
# Created by GIMP version 2.10.8 PNM plug-in
120 60
255
0
0
0
0
0
0
0
0
0
0
0
0
0
0
0
0
0
0
0
0
0
0
0
0
0
0
0
0
0
0
0
0
0
0
0
0
0
0
0
0
0
0
0
0
0
0
0
0
0
0
0
1
0
0
1
1
0
1
1
1
1
1
1
1
1
1
1
1
1
1
1
1
0
0
0
0
0
0
0
0
0
0
0
0
0
0
0
0
0
0
0
0
0
0
0
0
0
0
0
0
0
0
0
0
0
0
0
0
0
0
0
0
0
0
0
0
0
0
0
0
0
0
0
0
0
0
0
0
0
0
0
0
0
0
0
0
0
0
0
0
0
0
0
0
0
0
0
0
0
0
0
0
0
0
0
0
0
0
0
0
0
0
0
0
0
0
0
1
1
1
1
0
1
1
1
1
1
1
1
1
1
1
1
1
1
1
1
1
1
1
1
1
1
1
1
0
0
0
0
0
0
0
0
0
0
0
0
0
0
0
0
0
0
0
0
0
0
0
0
0
0
0
0
0
0
0
0
0
0
0
0
0
0
0
0
0
0
0
0
0
0
0
0
0
0
0
0
0
0
0
0
0
0
0
0
0
0
0
0
0
0
0
0
0
0
0
0
0
0
0
0
0
0
0
0
0
0
0
0
0
0
1
1
1
1
1
1
1
1
1
1
1
1
1
1
1
1
1
1
1
1
1
1
1
1
1
1
1
1
1
1
1
1
1
1
1
1
0
0
1
1
1
1
1
1
1
1
1
0
0
0
0
0
0
0
0
0
0
0
0
0
0
0
0
0
0
0
0
0
0
0
0
0
0
0
0
0
0
0
0
0
0
0
0
0
0
0
0
0
0
0
0
0
0
0
0
0
0
0
0
0
0
0
0
0
0
0
0
0
0
0
0
1
1
1
0
0
0
0
1
1
1
1
1
1
1
1
1
1
1
1
2
2
2
3
3
3
4
4
5
5
6
5
5
4
4
4
3
2
3
2
2
2
1
1
1
1
1
1
1
1
1
1
1
1
1
1
1
1
1
1
0
0
0
0
0
0
0
0
0
0
0
0
0
0
0
0
0
0
0
0
0
0
0
0
0
0
0
0
0
0
0
0
0
0
0
0
0
0
0
0
0
0
0
0
0
0
0
0
0
0
0
0
0
0
0
0
0
0
0
0
0
1
1
1
1
1
1
1
1
1
1
1
1
1
2
2
2
4
7
13
21
28
34
40
46
50
51
51
53
55
55
56
62
66
71
72
64
57
52
43
36
26
16
10
6
3
3
2
2
2
1
1
1
1
1
1
1
1
1
1
1
0
0
0
0
0
0
0
0
0
0
0
0
0
0
0
0
0
0
0
0
0
0
0
0
0
0
0
0
0
0
0
0
0
0
0
0
0
0
0
0
0
0
0
0
0
0
0
0
0
0
0
0
0
0
0
0
0
0
0
0
0
1
1
1
1
1
1
1
2
3
3
6
12
22
35
52
61
69
80
85
89
95
101
110
113
114
118
120
119
116
115
122
127
131
134
131
130
128
128
127
121
114
103
89
73
53
35
24
11
5
3
2
1
1
1
1
1
1
1
1
1
1
1
1
0
0
0
0
0
0
0
0
0
0
0
0
0
0
0
0
0
0
0
0
0
0
0
0
0
0
0
0
0
0
0
0
0
0
0
0
0
0
0
0
0
0
0
0
0
0
0
0
0
0
0
0
0
0
0
0
1
1
1
1
1
2
4
9
23
38
51
68
84
97
108
118
119
126
128
127
125
126
129
135
132
135
137
140
141
145
144
141
139
140
143
147
149
150
152
153
158
161
160
157
150
142
133
122
106
84
52
24
8
3
2
1
1
1
1
1
1
1
1
1
1
1
1
0
0
0
0
0
0
0
0
0
0
0
0
0
0
0
0
0
0
0
0
0
0
0
0
0
0
0
0
0
0
0
0
0
0
0
0
0
0
0
0
0
0
0
0
0
0
0
0
0
0
0
0
1
1
1
3
3
11
27
46
63
82
93
109
123
135
141
145
149
149
153
148
153
154
146
143
143
144
147
149
152
153
153
153
153
154
155
157
159
154
156
158
159
161
162
161
162
163
165
165
167
162
159
154
140
112
68
31
9
5
2
2
1
1
1
1
1
1
1
1
1
0
0
1
0
0
0
0
0
0
0
0
0
0
0
0
0
0
0
0
0
0
0
0
0
0
0
0
0
0
0
0
0
0
0
0
0
0
0
0
0
0
0
0
0
0
0
1
1
1
1
1
2
4
11
30
54
74
88
98
108
118
132
138
147
153
159
168
179
187
186
179
177
174
171
168
164
164
165
168
170
173
177
179
176
172
170
168
167
167
168
169
166
165
164
163
162
165
169
171
173
174
178
180
181
179
174
159
123
75
34
9
3
1
1
1
1
1
1
1
1
1
1
1
1
1
1
0
0
0
0
0
0
0
0
0
0
0
0
0
0
0
0
0
0
0
0
0
0
0
0
0
0
0
0
0
0
0
0
0
0
0
0
0
0
0
1
1
1
1
2
4
14
39
70
91
100
105
111
115
123
131
141
150
155
161
169
179
185
190
195
190
181
176
170
164
160
164
167
168
171
173
174
172
171
173
177
174
169
167
169
169
168
166
166
168
167
170
172
173
173
175
181
182
185
186
188
190
185
170
142
98
49
16
4
2
1
1
1
1
1
1
1
1
1
1
1
0
0
0
0
0
0
0
0
0
0
0
0
0
0
0
0
0
0
0
0
0
0
0
0
0
0
0
0
0
0
0
0
0
0
0
0
0
1
1
1
2
2
5
21
44
72
94
106
107
108
111
117
123
133
144
147
145
151
157
171
180
183
186
183
176
169
167
165
164
163
164
164
164
166
170
170
169
168
169
170
173
172
168
165
164
167
169
172
173
174
174
175
177
178
180
180
179
180
181
182
183
185
183
179
171
148
109
56
17
4
2
1
1
1
1
1
1
1
1
1
1
0
0
0
0
0
0
0
0
0
0
0
0
0
0
0
0
0
0
0
0
0
0
0
0
0
0
0
0
0
0
0
0
0
0
1
1
1
1
2
4
15
46
79
95
106
113
116
117
115
112
119
132
143
146
137
135
141
151
162
168
172
174
169
164
164
163
165
168
168
166
165
163
165
168
169
168
164
162
162
163
165
165
165
164
164
165
170
171
172
172
172
173
176
181
181
179
178
180
181
184
186
189
188
185
178
164
145
102
53
15
4
2
1
1
1
1
1
1
1
1
0
0
0
0
0
0
0
0
0
0
0
0
0
0
0
0
0
0
0
0
0
0
0
0
0
0
0
0
0
0
1
1
1
1
1
1
1
3
8
29
67
95
113
121
125
128
127
123
121
119
117
116
119
116
110
117
134
141
150
158
160
164
162
160
159
160
167
171
169
161
161
161
161
163
165
166
169
172
172
173
175
174
171
167
165
165
168
172
176
177
178
178
180
182
182
182
180
181
182
185
191
197
195
193
185
175
173
168
145
102
44
8
2
2
1
1
1
1
1
1
1
0
0
0
0
0
0
0
0
0
0
0
0
0
0
0
0
0
0
0
0
0
0
0
0
0
0
0
0
0
0
0
1
1
1
2
4
16
51
84
103
111
121
129
139
143
134
120
112
106
109
121
127
124
123
130
136
135
141
146
147
149
151
152
157
160
163
165
167
164
162
163
165
167
168
166
164
164
166
172
176
176
175
177
178
169
165
169
175
181
185
187
191
193
192
189
185
187
191
194
197
200
200
198
191
184
177
174
173
169
139
79
20
4
3
2
1
1
1
1
1
1
1
1
0
0
0
0
0
0
0
0
0
0
0
0
0
0
0
0
0
0
0
0
0
0
0
0
0
1
1
1
1
2
2
7
28
65
96
109
113
114
118
130
141
138
126
112
104
106
114
131
140
141
143
144
136
141
142
135
134
147
155
157
159
164
169
172
173
172
170
169
172
174
175
171
168
167
166
170
176
178
179
180
181
178
176
177
184
187
191
194
197
198
196
192
194
193
193
191
192
193
196
193
186
181
179
177
177
180
182
164
108
47
9
3
2
2
1
1
1
1
1
1
0
0
0
0
0
0
0
0
0
0
0
0
0
0
0
0
0
0
0
0
0
0
0
0
0
1
1
1
2
3
11
42
79
99
106
115
120
115
104
101
103
100
98
95
92
91
99
115
133
142
148
152
154
157
143
116
109
122
136
143
149
157
162
169
175
176
176
173
173
172
173
174
176
179
178
179
175
173
174
175
176
178
184
190
193
194
195
197
198
199
200
202
202
198
197
198
196
195
194
188
183
181
180
176
177
179
180
178
167
132
67
11
3
2
1
1
1
1
1
1
0
0
0
0
0
0
0
0
0
0
0
0
0
0
0
0
0
0
0
0
0
0
0
0
1
1
1
2
4
21
65
99
101
110
107
101
103
98
91
91
88
84
82
80
81
84
96
115
127
146
155
157
150
138
120
110
109
113
125
139
156
168
177
183
185
186
188
183
177
177
182
180
179
180
179
179
180
181
182
185
188
187
189
192
193
194
197
198
198
199
200
200
200
199
199
202
202
197
190
184
182
181
178
174
171
172
175
175
175
170
138
74
16
4
2
1
1
1
1
1
1
0
0
0
0
0
0
0
0
0
0
0
0
0
0
0
0
0
0
0
0
0
0
0
1
1
3
4
21
66
103
112
110
111
108
105
96
85
77
77
78
77
79
81
84
88
102
119
138
158
162
150
130
119
113
110
113
118
128
145
163
175
177
175
175
174
170
167
165
164
167
167
166
167
167
167
170
174
180
183
185
187
191
193
196
200
201
202
204
203
200
198
195
195
197
198
199
196
191
189
186
180
172
168
167
170
174
176
177
177
168
144
77
16
3
2
1
1
1
1
1
1
1
1
0
0
0
0
0
0
0
0
0
0
0
0
0
0
0
0
0
0
0
1
1
2
4
17
62
102
108
98
105
125
131
120
99
79
72
73
74
76
79
84
89
96
110
121
141
159
164
155
139
121
119
126
130
135
147
168
186
193
186
178
174
170
165
162
163
163
167
169
169
168
173
175
175
176
180
185
189
192
194
194
194
199
202
205
205
205
203
199
197
203
201
196
197
195
188
178
175
172
166
165
164
163
159
159
165
173
169
165
139
69
9
3
2
1
1
1
1
1
1
1
0
0
0
0
0
0
0
0
0
0
0
0
0
0
0
0
0
1
1
1
2
3
12
49
102
120
119
120
123
133
140
137
126
91
75
76
80
81
83
86
90
104
127
134
141
158
166
157
150
143
135
145
151
158
168
181
191
193
187
178
172
170
169
167
168
170
173
176
179
179
184
189
190
185
184
188
191
193
194
196
197
202
208
211
209
208
207
202
198
196
195
195
196
194
188
181
175
171
169
167
165
162
156
149
144
157
164
161
153
124
48
7
2
2
1
1
1
1
1
1
1
0
0
0
0
0
0
0
0
0
0
0
0
0
0
0
1
1
1
1
2
7
36
85
123
130
132
127
127
135
139
142
135
105
86
87
90
92
90
95
109
125
134
140
143
148
150
150
146
142
134
133
143
163
178
183
191
198
189
179
174
173
169
167
167
167
169
171
171
171
174
178
179
177
176
183
192
194
194
196
201
207
215
215
211
208
208
206
203
200
197
197
193
189
185
180
174
169
169
170
169
161
155
149
142
150
157
159
154
147
105
29
4
2
1
1
1
1
1
1
1
0
0
0
0
0
0
0
0
0
0
0
0
1
1
1
1
1
1
2
5
23
78
120
128
116
102
89
96
112
135
145
141
120
107
113
112
108
107
103
105
117
133
145
146
146
147
146
138
126
121
127
140
150
166
178
184
184
180
174
170
168
168
167
166
167
165
165
162
162
161
161
160
164
171
180
188
190
190
189
189
193
199
201
201
200
199
198
194
195
192
190
184
182
180
175
172
170
171
169
168
161
153
147
145
146
152
155
153
151
140
71
10
2
1
1
1
1
1
1
1
1
0
0
0
0
0
0
0
0
0
0
0
0
1
1
1
1
1
3
14
60
114
122
95
78
73
76
81
96
130
150
152
133
111
112
108
96
90
87
85
89
111
140
152
148
136
120
109
111
114
120
131
145
158
174
186
188
185
183
182
179
173
169
170
172
175
171
163
159
163
165
163
165
170
174
172
172
170
175
180
179
180
178
179
181
179
177
180
184
190
186
176
174
173
170
163
167
169
170
170
168
161
150
145
146
152
154
155
156
156
116
34
4
2
1
1
1
1
1
1
1
0
0
0
0
0
0
0
0
0
0
0
0
0
1
1
1
2
5
31
101
124
109
82
73
75
79
86
100
132
158
155
134
115
111
104
92
81
82
85
87
93
107
111
99
91
90
92
108
131
149
157
167
176
187
189
183
181
183
185
178
172
169
168
168
169
168
166
165
169
171
166
160
159
160
160
164
167
164
156
142
134
134
137
143
139
145
159
172
186
186
174
168
167
167
162
160
162
167
170
170
164
153
148
151
151
153
158
158
160
142
74
10
4
2
1
1
1
1
1
1
1
0
0
0
0
0
0
0
0
0
0
0
0
1
1
1
3
11
59
124
127
110
89
82
85
87
96
119
149
166
155
132
106
88
82
78
74
74
78
79
82
84
85
85
80
82
89
102
128
148
167
180
188
191
189
180
174
173
171
172
171
168
167
165
161
160
161
160
162
166
164
159
163
165
165
167
163
151
135
118
104
98
100
102
112
121
132
146
165
175
160
143
137
146
149
155
160
161
163
162
161
158
158
155
152
144
148
158
159
154
114
27
4
2
1
1
1
1
1
1
1
0
0
0
0
0
0
0
0
0
0
0
1
1
1
2
4
18
88
134
139
133
108
97
98
102
114
147
174
176
153
138
120
90
73
72
70
70
71
72
75
76
76
74
79
81
85
86
98
119
147
162
169
172
172
171
168
169
172
173
175
176
172
169
165
159
158
158
156
155
155
159
162
163
160
160
156
144
124
113
97
93
91
91
91
93
100
114
133
150
143
137
133
125
123
131
145
151
153
152
146
148
155
154
151
145
149
160
162
159
136
52
5
3
2
1
1
1
1
1
1
0
0
0
0
0
0
0
0
0
0
1
1
1
1
2
5
29
107
142
145
138
126
118
118
122
133
156
170
172
156
138
117
86
74
72
70
70
72
71
72
73
71
73
76
78
78
81
89
109
128
145
156
166
169
168
169
169
170
174
182
187
181
171
163
157
154
154
152
152
154
152
154
152
144
139
133
116
102
99
96
94
93
98
98
94
99
110
121
126
118
126
126
118
127
140
145
146
146
146
139
139
149
154
152
153
159
165
166
162
146
73
9
3
2
1
1
1
1
1
1
0
0
0
0
0
0
0
0
0
0
1
1
1
1
2
7
37
120
148
152
152
146
146
149
146
150
151
157
157
152
129
105
85
83
79
74
72
75
76
76
75
74
77
80
83
84
85
92
112
135
145
152
162
165
167
167
166
165
167
170
170
168
165
162
160
157
152
148
149
153
152
146
132
121
119
107
94
95
99
92
92
93
99
103
104
111
115
120
118
109
121
132
134
143
138
135
135
136
143
148
150
157
163
163
164
166
166
160
162
150
92
13
4
2
1
1
1
1
1
0
0
0
0
0
0
0
0
0
0
0
1
1
1
1
2
8
43
124
145
146
151
153
152
153
152
149
150
147
148
151
139
113
105
99
99
87
78
77
77
78
78
73
72
72
72
76
82
96
117
134
141
151
165
176
180
177
172
170
172
170
167
161
157
156
156
155
153
150
148
151
155
149
138
130
115
106
97
96
100
99
99
100
103
105
112
126
127
121
113
107
119
120
112
113
105
104
108
116
133
148
166
178
176
168
164
162
160
158
162
153
105
18
3
1
1
1
1
1
1
1
1
0
0
0
0
0
0
0
0
0
1
1
1
1
2
9
49
126
141
145
153
163
166
164
165
162
156
153
155
154
138
125
125
122
119
101
82
78
76
73
73
71
72
72
72
77
93
114
130
143
149
156
167
178
182
176
172
169
165
162
159
153
148
149
153
157
161
159
156
153
150
144
131
116
104
103
109
119
118
105
104
105
104
102
106
116
121
126
126
119
121
120
103
86
84
86
91
101
123
144
167
180
184
178
170
166
164
163
164
153
103
17
3
2
1
1
1
1
1
1
1
0
0
0
0
0
0
0
0
0
0
1
1
1
3
7
38
119
140
150
162
168
167
168
173
173
166
164
165
162
156
146
140
134
123
104
88
83
80
80
84
81
80
82
86
93
113
128
137
144
145
147
151
159
161
160
157
158
157
152
145
138
131
132
144
151
154
159
156
155
151
139
121
102
95
108
125
137
119
107
110
107
104
106
121
129
132
129
124
125
132
126
99
81
78
82
88
101
114
132
157
174
183
178
171
170
166
162
160
151
91
12
4
2
1
1
1
1
1
0
0
0
0
0
0
0
0
0
0
0
0
1
1
1
3
6
29
120
148
154
167
168
163
166
170
172
172
169
169
172
173
160
141
128
104
87
83
82
82
80
82
90
103
112
118
120
129
130
127
126
126
120
119
126
131
141
153
155
146
138
127
118
111
111
127
141
150
153
151
157
160
146
122
104
104
117
133
133
114
98
94
96
101
119
132
129
121
105
96
107
107
101
88
80
80
83
87
98
120
149
161
169
177
175
173
174
172
165
165
150
80
9
2
2
1
1
1
1
1
1
0
0
0
0
0
0
0
0
0
0
1
1
1
2
2
4
21
104
152
154
158
159
160
162
167
165
167
166
168
167
165
153
132
107
87
84
85
84
82
83
82
86
91
106
135
127
109
105
106
107
98
92
86
95
111
126
139
141
138
140
136
125
115
110
116
127
137
135
132
135
137
134
121
115
122
132
137
131
116
99
93
91
88
89
95
98
97
88
85
95
98
105
100
107
111
104
106
123
143
154
160
164
175
180
185
193
188
173
166
141
53
5
2
2
1
1
1
1
1
1
0
0
0
0
0
0
0
0
0
0
0
1
1
1
2
3
12
77
139
144
151
158
156
160
162
165
160
152
156
154
149
140
115
88
81
84
85
83
81
86
90
92
92
90
95
101
103
107
124
133
111
87
77
78
90
104
126
138
140
138
140
136
119
102
97
102
107
107
108
110
111
118
122
126
133
132
132
127
116
107
96
90
87
90
96
102
99
89
84
88
103
112
119
136
141
143
147
154
160
155
153
155
166
180
193
201
193
173
157
118
25
4
2
1
1
1
1
1
1
1
0
0
0
0
0
0
0
0
0
1
1
1
1
1
1
2
7
38
121
148
150
152
153
156
157
153
151
140
132
130
138
146
127
95
84
85
87
89
91
95
94
93
86
83
83
90
99
101
103
111
103
90
87
86
89
94
108
119
126
130
134
123
106
94
86
82
90
101
104
105
104
107
114
124
128
123
116
114
111
101
96
96
103
120
129
122
104
90
87
86
92
106
134
140
137
137
136
136
138
140
146
151
161
172
181
186
183
171
147
76
7
3
2
1
1
1
1
1
0
0
0
0
0
0
0
0
0
0
0
1
0
1
1
1
1
2
4
17
80
147
149
144
153
158
157
153
149
131
116
119
130
134
121
97
93
94
95
92
91
91
89
85
83
81
79
83
83
92
95
102
105
102
97
94
97
98
99
96
90
93
99
98
94
88
87
86
98
106
104
102
101
105
118
131
137
121
111
106
100
99
102
105
114
124
125
114
103
92
86
84
89
103
123
116
119
122
124
126
125
133
144
147
156
166
171
174
172
161
117
32
4
2
2
1
1
1
1
1
0
0
0
0
0
0
0
0
0
0
0
0
0
1
1
1
1
1
2
6
35
118
152
150
156
165
157
149
143
136
129
129
127
119
106
101
102
102
94
91
88
89
88
87
86
83
79
79
81
92
105
114
119
123
118
116
114
116
118
105
91
87
91
96
99
103
111
117
118
111
105
97
100
111
121
128
136
134
130
119
110
111
110
108
104
101
98
94
96
88
84
86
89
87
87
87
94
103
106
116
125
137
148
156
159
160
158
157
156
138
66
8
2
2
1
1
1
1
1
1
1
0
0
0
0
0
0
0
0
0
0
0
0
0
1
1
1
1
3
4
10
56
133
162
164
165
163
155
147
144
141
140
135
125
120
119
122
113
100
93
90
89
87
89
91
91
88
92
105
120
131
136
142
148
142
140
137
138
132
128
121
109
101
106
112
119
127
130
128
125
122
119
119
120
125
130
138
137
130
123
114
114
110
100
98
100
95
89
85
82
84
86
82
82
80
81
85
89
97
111
114
122
150
169
166
157
161
163
150
95
20
4
2
1
1
1
1
1
1
1
1
0
0
0
0
0
0
0
0
0
0
0
0
0
1
1
1
1
1
3
4
16
77
148
161
165
166
165
159
149
145
145
144
136
123
122
130
132
119
104
96
92
89
89
93
100
102
116
130
137
135
133
142
149
147
143
133
126
122
123
125
117
116
116
123
130
135
136
137
137
140
148
150
145
136
136
136
137
133
124
113
108
110
106
97
94
92
86
79
77
80
81
79
80
80
81
82
81
81
88
100
121
148
162
165
164
162
154
114
34
4
3
2
1
1
1
1
1
1
1
1
0
0
0
0
0
0
0
0
0
0
0
0
0
0
1
1
1
1
1
2
5
23
101
163
175
175
168
160
155
148
141
139
135
136
136
139
144
144
129
109
103
106
114
124
123
119
118
128
133
127
112
115
128
134
130
116
98
93
96
100
107
112
116
122
130
135
136
136
141
150
167
176
172
155
143
137
132
129
129
120
112
112
108
103
101
101
94
83
82
79
77
75
78
79
83
86
79
76
86
107
131
150
160
160
162
158
132
54
6
3
3
2
1
1
1
1
1
0
0
0
0
0
0
0
0
0
0
0
0
0
0
0
0
0
0
1
1
1
1
2
3
6
35
121
173
183
176
159
143
134
135
139
139
143
148
152
155
156
152
148
149
149
151
147
131
120
121
131
136
134
127
118
123
130
133
130
115
97
94
97
100
102
103
107
115
121
124
130
137
146
150
148
144
147
145
140
129
118
113
113
116
116
116
122
122
113
103
94
83
78
78
77
77
79
84
84
78
79
91
118
141
153
138
151
157
137
62
9
3
2
2
1
1
1
1
1
1
0
0
0
0
0
0
0
0
0
0
0
0
0
0
0
0
0
0
0
0
1
1
2
2
2
6
39
124
183
189
171
145
127
124
130
136
145
150
155
159
162
162
163
166
163
154
143
133
122
126
136
131
125
122
120
119
121
126
123
116
103
98
96
97
98
96
100
103
105
107
111
114
125
138
139
137
142
145
139
130
114
107
107
120
138
147
145
132
114
102
90
80
77
78
78
78
80
78
76
78
83
101
130
143
137
143
154
130
62
8
3
2
1
1
1
1
1
1
1
1
0
0
0
0
0
0
0
0
0
0
0
0
0
0
0
0
0
0
0
1
0
1
1
1
1
2
7
37
130
185
183
169
148
133
126
130
136
145
150
151
150
154
155
157
158
152
147
134
128
128
126
123
116
109
103
102
101
98
96
99
104
110
104
94
93
98
99
99
102
104
100
105
114
124
128
133
140
137
124
112
99
99
112
127
137
143
138
127
112
97
86
81
82
82
80
80
76
75
78
82
93
113
141
159
162
145
118
48
6
3
1
1
1
1
1
1
1
1
0
0
0
0
0
0
0
0
0
0
0
0
0
0
0
0
0
0
0
0
0
0
1
1
1
1
1
1
2
6
27
93
156
172
169
160
146
136
133
136
140
141
141
142
147
154
161
159
148
140
129
130
128
121
113
107
98
91
93
92
93
94
93
95
94
95
93
89
91
96
95
98
98
102
105
108
108
110
116
112
104
99
95
102
113
117
120
115
103
97
88
84
80
82
82
81
81
78
76
77
84
101
126
154
166
167
149
101
33
4
2
2
1
1
1
1
1
1
1
1
0
0
0
0
0
0
0
0
0
0
0
0
0
0
0
0
0
0
0
0
0
0
1
1
1
1
1
1
1
3
2
12
57
125
163
167
164
158
150
143
139
137
137
140
143
154
160
158
150
140
121
116
113
110
107
102
98
96
98
94
91
90
92
89
90
89
86
88
91
93
94
96
93
93
104
112
109
105
97
93
93
91
99
110
113
107
101
94
91
88
82
81
79
79
80
81
84
87
86
88
104
136
159
166
162
138
74
17
3
2
1
1
1
1
1
1
1
1
0
0
0
0
0
0
0
0
0
0
0
0
0
0
0
0
0
0
0
0
0
0
0
0
0
0
0
0
1
1
1
1
2
3
5
24
80
139
167
170
167
166
156
147
144
137
138
144
157
164
159
144
124
112
109
104
102
100
101
101
99
97
91
89
89
85
83
83
85
87
88
93
93
92
88
90
96
95
90
94
93
93
96
97
101
110
108
100
92
88
88
86
82
79
80
77
77
78
81
85
88
101
129
153
164
154
105
41
6
2
3
1
1
1
1
1
1
1
0
1
0
0
0
0
0
0
0
0
0
0
0
0
0
0
0
0
0
0
0
0
0
0
0
0
0
0
0
1
1
1
1
1
1
1
2
3
7
28
94
148
174
179
172
167
160
153
140
138
149
158
154
146
135
121
115
115
109
105
103
97
94
91
86
86
85
83
81
83
84
85
85
88
90
91
91
95
95
93
90
90
90
91
96
99
106
111
102
94
92
87
85
83
79
77
72
74
75
78
81
86
99
126
145
147
117
58
9
3
2
1
1
1
1
1
1
1
0
0
0
0
0
0
0
0
0
0
0
0
0
0
0
0
0
0
0
0
0
0
0
0
0
0
0
0
0
0
0
0
0
0
0
0
1
1
1
2
2
4
7
38
102
156
186
190
186
177
165
147
134
132
142
146
140
130
135
129
122
108
102
97
94
86
85
83
84
80
80
83
85
88
89
91
94
96
96
99
101
99
96
95
99
104
111
114
120
128
123
110
100
90
84
82
79
77
73
75
77
80
84
95
112
116
100
52
10
2
2
2
1
1
1
1
1
1
0
0
0
0
0
0
0
0
0
0
0
0
0
0
0
0
0
0
0
0
0
0
0
0
0
0
0
0
0
0
0
0
0
0
0
0
0
0
1
1
1
1
1
1
2
3
8
34
97
157
194
203
198
184
167
152
140
136
140
143
149
149
133
120
119
114
104
96
90
89
88
87
84
83
87
92
92
92
94
91
92
95
98
101
99
101
105
110
114
121
133
142
132
112
98
88
80
78
78
78
81
82
83
89
98
95
74
34
7
2
2
1
1
1
1
1
1
1
0
0
0
0
0
0
0
0
0
0
0
0
0
0
0
0
0
0
0
0
0
0
0
0
0
0
0
0
0
0
0
0
0
0
0
0
0
0
0
0
1
0
0
1
1
1
1
2
2
3
5
22
72
128
168
191
193
186
171
155
147
137
133
137
139
141
144
145
142
138
132
117
111
106
97
97
106
114
111
112
117
115
114
108
102
97
98
102
103
107
109
106
105
99
94
89
85
83
82
84
86
95
99
94
85
71
52
19
3
2
2
1
1
1
1
1
1
1
1
0
0
0
0
0
0
0
0
0
0
0
0
0
0
0
0
0
0
0
0
0
0
0
0
0
0
0
0
0
0
0
0
0
0
0
0
0
0
0
0
0
0
0
0
0
1
1
1
1
1
1
2
2
4
6
22
64
118
152
172
182
178
170
159
148
144
144
148
152
152
152
153
154
154
146
140
143
148
146
142
137
137
133
125
116
107
99
97
96
94
93
92
92
92
86
85
81
83
89
92
92
90
87
70
46
20
4
2
1
1
1
1
1
1
1
1
1
0
0
0
0
0
0
0
0
0
0
0
0
0
0
0
0
0
0
0
0
0
0
0
0
0
0
0
0
0
0
0
0
0
0
0
0
0
0
0
0
0
0
0
0
0
0
0
0
1
0
1
1
1
1
1
1
1
2
2
4
4
13
43
86
119
147
163
170
170
167
161
157
152
144
141
146
151
155
150
145
144
143
145
138
126
112
103
97
96
95
94
92
89
90
90
88
87
86
88
82
75
77
72
53
27
10
3
2
1
1
1
1
1
1
1
1
0
0
0
0
0
0
0
0
0
0
0
0
0
0
0
0
0
0
0
0
0
0
0
0
0
0
0
0
0
0
0
0
0
0
0
0
0
0
0
0
0
0
0
0
0
0
0
0
0
0
0
0
0
0
1
1
0
0
1
1
1
1
1
1
2
2
3
3
5
12
32
69
105
131
146
155
164
167
163
159
156
150
141
134
123
115
118
119
118
111
106
101
96
93
88
86
84
83
79
72
65
55
46
32
17
8
3
2
2
1
1
1
1
1
1
1
1
0
0
0
0
0
0
0
0
0
0
0
0
0
0
0
0
0
0
0
0
0
0
0
0
0
0
0
0
0
0
0
0
0
0
0
0
0
0
0
0
0
0
0
0
0
0
0
0
0
0
0
0
0
0
0
0
0
0
0
0
0
0
0
0
1
1
1
1
1
1
1
2
2
2
2
3
4
8
19
37
58
72
86
97
105
110
110
105
100
91
87
87
82
76
70
62
51
45
39
36
32
23
13
6
4
2
2
2
2
1
1
1
1
1
1
0
1
1
0
0
0
0
0
0
0
0
0
0
0
0
0
0
0
0
0
0
0
0
0
0
0
0
0
0
0
0
0
0
0
0
0
0
0
0
0
0
0
0
0
0
0
0
0
0
0
0
0
0
0
0
0
0
0
0
0
0
0
0
0
0
0
0
0
0
1
1
1
1
1
1
1
1
1
1
1
1
1
1
2
2
2
2
3
3
2
3
4
4
4
4
4
4
4
3
4
3
2
2
2
1
1
1
2
1
1
1
1
1
1
1
1
1
1
1
0
0
0
0
0
0
0
0
0
0
0
0
0
0
0
0
0
0
0
0
0
0
0
0
0
0
0
0
0
0
0
0
0
0
0
0
0
0
0
0
0
0
0
0
0
0
0
0
0
0
0
0
0
0
0
0
0
0
0
0
0
0
0
0
0
0
0
0
0
0
0
0
0
0
1
1
1
1
1
1
1
1
1
1
1
1
1
1
1
1
1
1
1
1
1
1
1
1
1
1
1
1
1
1
1
1
1
1
1
1
1
1
1
1
1
1
0
0
0
0
0
0
0
0
0
0
0
0
0
0
0
0
0
0
0
0
0
0
0
0
0
0
0
0
0
0
0
0
0
0
0
0
0
0
0
0
0
0
0
0
0
0
0
0
0
0
0
0
0
0
0
0
0
0
0
0
0
0
0
0
0
0
0
0
0
0
0
0
0
0
0
0
0
0
0
0
0
0
0
0
0
0
1
1
1
1
1
1
1
1
1
1
1
1
1
1
1
1
1
1
1
1
1
1
1
0
0
0
0
0
0
0
0
0
0
0
0
0
0
0
0
0
0
0
0
0
0
0
0
0
0
0
0
0
0
0
0
0
0
0
0
0
0
0
0
0
0
0
0
0
0
0
0
0
0
0
0
0
0
0
0
0
0
0
0
0
0
0
0
0
0
0
0
0
0
0
0
0
0
0
0
0
0
0
0
0
0
0
0
0
0
0
0
0
0
0
0
0
0
0
0
0
0
0
0
0
1
1
1
1
1
1
1
1
1
1
1
0
0
0
0
0
0
0
0
0
0
0
0
0
0
0
0
0
0
0
0
0
0
0
0
0
0
0
0
0
0
0
0
0
0
0
0
0
0
0
0
0
0
0
0
0
0
0
0
0
0
0
0
0
0
0
0
0
0
0
0
0
0
0
0
0
0
0
0
0
0
0
0
0
0
0
0
0
0
0
0
0
0
0
0
0
0
0
0
0
0
0
0
0
0
0
0
0
0
0
0
0
0
0
0
0
0
0
0
0
0
0
0
0
0
0
0
0
0
0
0
0
0
0
0
0
0
0
0
0
0
0
0
0
0
0
0
0
0
0
0
0
0
0
0
0
0
0
0
0
0
0
0
0
0
0
0
0
0
0
0
0
0
0
0
0
0
0
0
0
0
0
0
0
0
0
0
0
0
0
0
0
0
0
0
0
0
0
0
0
0
0
0
0
0
0
0
0
0
0
0
0
0
0
0
0
0
0
0
0
0
0
0
0
0
0
0
0
0
0
0
0
0
0
0
0
0
0
0
0
0
0
0
0
0
0
0
0
0
0
0
0
0
0
0
0
0
0
0
0
0
0
0
0
0
0
0
0
0
0
0
0
0
0
0
0
0
0
0
0
0
0
0
0
0
0
0
0
0
0
0
0
0
0
0
0
0
0
0
0
0
0
0
0
0
0
0
0
0
