P3
# Created by GIMP version 2.10.8 PNM plug-in
70 35
255
0
0
0
0
0
0
0
0
0
0
0
0
0
0
0
0
0
0
0
0
0
0
0
0
0
0
0
0
0
0
0
0
0
0
0
0
0
0
0
0
0
0
0
0
0
0
0
0
0
0
0
0
0
0
0
0
0
0
0
0
0
0
0
0
0
0
0
0
0
0
0
0
0
0
0
0
0
0
0
0
0
0
0
0
0
0
0
0
0
0
0
0
0
1
1
1
1
1
1
1
1
1
1
1
1
1
1
1
1
1
1
1
1
1
1
1
1
1
1
1
1
1
1
1
1
1
0
0
0
0
0
0
0
0
0
0
0
0
0
0
0
0
0
0
0
0
0
0
0
0
0
0
0
0
0
0
0
0
0
0
0
0
0
0
0
0
0
0
0
0
0
0
0
0
0
0
0
0
0
0
0
0
0
0
0
0
0
0
0
0
0
0
0
0
0
0
0
0
0
0
0
0
0
0
0
0
0
0
0
0
0
0
0
0
0
0
0
0
0
0
0
0
0
0
0
0
0
0
0
0
0
0
0
0
0
0
0
0
0
0
0
0
0
0
0
0
0
0
0
0
0
0
0
0
0
0
0
0
0
0
0
0
0
0
0
0
0
0
0
0
0
0
0
0
0
0
0
0
0
0
0
0
1
1
1
1
1
1
1
1
1
1
1
1
1
1
1
1
1
1
1
1
1
1
1
1
1
1
1
3
2
1
3
2
1
3
2
1
3
2
1
3
2
1
3
2
1
2
1
1
1
1
1
1
1
1
1
1
1
1
1
1
1
1
1
0
0
0
1
1
1
1
1
1
1
1
1
1
1
1
1
1
1
0
0
0
0
0
0
0
0
0
0
0
0
0
0
0
0
0
0
0
0
0
0
0
0
0
0
0
0
0
0
0
0
0
0
0
0
0
0
0
0
0
0
0
0
0
0
0
0
0
0
0
0
0
0
0
0
0
0
0
0
0
0
0
0
0
0
0
0
0
0
0
0
0
0
0
0
0
0
0
0
0
0
0
0
0
0
0
0
0
0
0
0
0
0
0
0
0
0
0
0
0
0
0
0
0
0
0
0
0
0
0
0
0
0
1
1
1
1
1
1
1
1
1
1
1
1
1
1
1
1
1
1
3
2
1
5
4
3
12
10
6
22
19
11
33
28
16
44
38
21
55
47
26
66
57
32
71
61
34
74
63
35
75
64
36
76
65
36
86
73
41
93
79
44
85
73
41
75
64
36
66
56
32
53
45
25
40
34
19
27
23
13
12
10
6
5
5
3
3
2
1
1
1
1
1
1
1
1
1
1
1
1
1
1
1
1
1
1
1
0
0
0
0
0
0
0
0
0
0
0
0
0
0
0
0
0
0
0
0
0
0
0
0
0
0
0
0
0
0
0
0
0
0
0
0
0
0
0
0
0
0
0
0
0
0
0
0
0
0
0
0
0
0
0
0
0
0
0
0
0
0
0
0
0
0
0
0
0
0
0
0
0
0
0
0
0
0
0
0
0
0
0
0
0
0
0
0
0
0
0
0
0
0
0
0
0
0
0
0
0
0
0
0
0
1
1
1
1
1
1
3
2
1
7
6
3
23
19
11
45
39
22
73
62
35
98
84
47
121
103
58
134
115
64
145
124
69
148
127
71
154
132
74
165
142
79
168
144
80
174
149
85
174
150
86
174
150
87
176
152
89
178
155
95
180
157
97
180
157
98
180
158
99
180
158
99
177
153
91
165
141
79
142
122
68
121
103
58
87
74
42
45
38
21
17
14
8
4
3
2
1
1
1
1
1
1
1
1
1
1
1
1
1
1
1
1
1
1
0
0
0
0
0
0
0
0
0
0
0
0
0
0
0
0
0
0
0
0
0
0
0
0
0
0
0
0
0
0
0
0
0
0
0
0
0
0
0
0
0
0
0
0
0
0
0
0
0
0
0
0
0
0
0
0
0
0
0
0
0
0
0
0
0
0
0
0
0
0
0
0
0
0
0
0
0
0
0
0
0
0
0
0
0
0
0
0
0
0
0
0
0
1
1
1
7
6
3
33
28
16
62
53
29
90
77
43
120
103
58
149
127
71
174
150
86
183
161
104
189
170
118
194
175
127
192
173
124
192
173
124
188
167
114
186
166
111
188
168
115
191
172
121
193
174
125
193
175
126
193
174
125
193
174
125
194
175
126
193
174
125
194
176
128
195
177
129
195
176
129
195
177
130
196
179
132
196
179
132
194
175
127
188
168
115
170
146
81
124
106
59
68
58
32
16
14
8
3
2
1
1
1
1
1
1
1
1
1
1
1
1
1
0
0
0
1
1
1
0
0
0
0
0
0
0
0
0
0
0
0
0
0
0
0
0
0
0
0
0
0
0
0
0
0
0
0
0
0
0
0
0
0
0
0
0
0
0
0
0
0
0
0
0
0
0
0
0
0
0
0
0
0
0
0
0
0
0
0
0
0
0
0
0
0
0
0
0
0
0
0
0
0
0
1
1
1
3
2
1
13
11
6
46
39
22
92
79
44
122
105
59
140
119
67
155
132
74
173
149
84
183
161
104
190
170
119
198
181
135
207
193
155
213
200
167
210
196
160
203
188
147
198
181
136
195
177
129
197
180
135
199
183
139
202
186
144
202
186
144
201
185
142
202
186
144
199
183
139
199
182
137
199
182
137
197
180
135
198
181
136
199
183
139
202
186
144
203
187
145
206
191
152
208
194
157
209
195
159
207
193
156
195
176
129
162
139
78
90
77
43
32
27
15
4
3
2
1
1
1
1
1
1
1
1
1
1
1
1
1
1
1
1
1
1
0
0
0
0
0
0
0
0
0
0
0
0
0
0
0
0
0
0
0
0
0
0
0
0
0
0
0
0
0
0
0
0
0
0
0
0
0
0
0
0
0
0
0
0
0
0
0
0
0
0
0
0
0
0
0
0
0
0
0
0
0
0
0
1
1
1
1
1
1
10
8
5
52
44
25
99
85
48
132
113
63
152
130
72
152
130
73
155
133
74
174
149
85
182
160
102
180
157
98
185
164
109
196
179
132
203
188
147
204
189
149
199
183
139
197
179
133
198
180
135
197
180
134
196
179
132
197
179
133
199
183
139
199
182
137
197
180
134
198
181
136
199
182
137
197
179
133
197
179
133
199
182
137
201
185
143
202
186
144
203
187
145
205
190
151
207
192
154
206
191
153
207
192
154
209
195
159
211
198
163
208
193
156
195
177
129
167
143
80
91
78
44
28
24
13
3
2
1
1
1
1
1
1
1
1
1
1
1
1
1
0
0
0
0
0
0
0
0
0
0
0
0
0
0
0
0
0
0
0
0
0
0
0
0
0
0
0
0
0
0
0
0
0
0
0
0
0
0
0
0
0
0
0
0
0
0
0
0
0
0
0
0
0
0
1
1
1
1
1
1
1
1
1
3
3
1
29
25
14
83
71
40
131
112
63
161
138
77
174
150
87
174
149
85
161
138
77
154
132
74
161
138
77
164
140
78
162
139
78
178
154
93
185
164
108
190
171
120
192
174
124
192
173
123
194
175
127
198
180
135
198
180
135
195
177
129
196
178
131
197
179
133
197
180
135
199
182
137
201
184
141
203
188
147
202
186
144
200
183
140
198
181
136
201
184
141
205
190
151
207
193
155
210
196
160
210
197
162
209
195
158
209
195
158
212
199
166
217
205
175
217
205
175
210
196
160
202
186
145
193
174
126
163
139
78
75
64
36
9
8
4
3
2
1
1
1
1
1
1
1
1
1
1
0
0
0
0
0
0
0
0
0
0
0
0
0
0
0
0
0
0
0
0
0
0
0
0
0
0
0
0
0
0
0
0
0
0
0
0
0
0
0
0
0
0
0
0
0
0
0
0
1
1
1
1
1
1
2
1
1
8
7
4
50
43
24
107
92
51
145
124
69
154
132
74
163
139
78
176
152
89
166
142
79
143
123
69
143
123
69
172
148
82
180
157
98
183
161
103
181
159
101
181
159
101
175
151
89
184
162
106
190
170
118
194
176
128
199
183
139
201
185
143
200
183
140
200
183
140
202
186
144
201
184
142
200
183
139
200
184
141
204
189
148
205
189
150
206
191
152
205
189
149
206
192
154
211
198
163
214
202
170
218
206
177
217
206
176
216
204
173
215
203
171
215
203
171
216
204
173
216
204
173
210
196
160
206
191
152
205
189
150
205
190
150
190
170
119
117
100
56
31
26
15
3
2
1
1
1
1
1
1
1
1
1
1
1
1
1
0
0
0
0
0
0
0
0
0
0
0
0
0
0
0
0
0
0
0
0
0
0
0
0
0
0
0
0
0
0
0
0
0
0
0
0
0
0
0
0
0
0
1
1
1
2
2
1
16
14
8
80
69
38
126
108
60
144
123
69
144
123
69
141
120
67
126
108
60
123
106
59
117
100
56
114
98
55
123
105
59
157
135
75
182
160
102
190
170
118
186
165
110
173
148
84
150
128
72
164
140
78
182
160
103
196
178
131
204
188
148
208
193
156
208
194
156
204
189
149
204
188
148
205
190
150
205
190
151
205
190
151
205
190
151
206
191
153
208
194
158
210
197
162
214
201
168
216
204
172
218
206
177
219
208
179
219
209
181
220
209
181
218
207
178
219
209
181
217
206
177
212
199
166
208
194
156
205
190
151
202
186
143
203
187
146
203
188
147
195
176
129
140
120
67
38
32
18
3
2
1
1
1
1
1
1
1
1
1
1
0
0
0
0
0
0
0
0
0
0
0
0
0
0
0
0
0
0
0
0
0
0
0
0
0
0
0
0
0
0
0
0
0
0
0
0
0
0
0
1
1
1
3
2
1
14
12
7
81
70
39
138
118
66
146
125
70
161
138
77
150
129
72
118
101
56
102
87
49
103
88
49
107
91
51
115
98
55
132
113
63
166
142
79
189
169
118
192
173
123
176
152
90
160
137
76
164
140
78
175
151
89
193
174
125
207
193
155
206
191
152
203
187
146
199
182
138
196
179
133
197
180
134
199
182
138
199
182
137
201
184
142
203
187
145
206
192
153
210
197
161
214
201
168
216
204
172
218
207
178
221
211
184
222
212
186
221
210
183
218
206
177
219
208
179
218
207
178
217
205
175
211
198
163
206
191
152
200
183
140
198
180
135
198
181
136
199
182
137
202
186
144
194
176
128
141
120
67
32
27
15
3
2
1
1
1
1
1
1
1
1
1
1
1
1
1
0
0
0
0
0
0
0
0
0
0
0
0
0
0
0
0
0
0
0
0
0
0
0
0
0
0
0
0
0
0
1
1
1
1
1
1
7
6
3
64
55
31
147
126
70
165
141
79
166
142
79
177
154
92
178
154
93
141
121
68
107
92
51
112
96
54
115
98
55
127
109
61
158
135
76
178
154
93
188
168
115
192
173
124
185
164
108
178
155
94
184
162
106
195
176
129
208
193
156
215
202
170
209
195
158
202
186
143
199
182
138
198
180
135
200
183
139
203
187
146
204
188
148
208
194
156
210
196
160
208
194
156
212
199
166
215
203
171
217
205
175
221
210
183
226
217
194
225
216
193
224
214
190
220
210
182
218
206
177
217
205
175
215
203
171
209
195
159
203
187
146
200
183
139
198
181
136
193
175
126
187
166
113
190
170
118
194
176
128
185
163
108
111
95
53
12
10
6
3
2
1
1
1
1
1
1
1
1
1
1
1
1
1
0
0
0
0
0
0
0
0
0
0
0
0
0
0
0
0
0
0
0
0
0
1
1
1
1
1
1
1
1
1
3
3
1
43
37
20
131
112
63
163
139
78
144
123
69
136
116
65
166
142
80
182
160
103
169
145
81
144
123
69
144
123
69
138
118
66
139
119
66
164
141
79
182
160
102
185
164
108
184
162
106
177
153
91
168
144
81
178
155
94
192
173
123
205
191
151
211
197
162
206
191
153
201
185
142
199
182
138
198
180
135
198
181
137
198
180
135
196
178
132
197
179
133
197
179
133
201
185
143
209
195
159
212
199
164
212
200
166
216
204
173
220
209
181
219
209
181
218
207
178
216
204
174
216
204
172
213
200
167
209
195
158
205
190
150
201
184
141
200
183
140
199
182
138
193
174
126
186
165
111
185
164
109
190
170
118
189
169
116
176
152
89
65
56
31
3
3
2
1
1
1
1
1
1
1
1
1
1
1
1
0
0
0
0
0
0
0
0
0
0
0
0
0
0
0
0
0
0
0
0
0
0
0
0
1
1
1
1
1
1
15
13
7
108
92
52
157
134
75
118
101
56
103
88
49
113
96
54
153
131
73
188
168
115
179
156
97
151
129
72
138
118
66
117
100
56
115
98
55
126
108
60
163
139
78
165
141
79
145
124
69
139
119
67
167
143
80
184
162
106
196
178
131
208
194
156
210
197
161
208
194
156
207
193
155
202
186
144
199
182
138
200
183
140
199
182
137
195
178
131
198
181
136
196
178
132
196
178
132
197
180
135
199
182
137
198
181
136
193
174
126
189
169
117
191
171
120
191
172
122
196
178
132
207
192
154
209
195
159
200
184
141
198
181
137
195
177
130
197
179
133
199
182
139
198
180
135
189
169
116
186
166
112
188
168
116
191
172
122
190
171
120
132
113
63
18
16
9
2
2
1
1
1
1
1
1
1
1
1
1
1
1
1
0
0
0
0
0
0
0
0
0
0
0
0
0
0
0
0
0
0
0
0
0
1
1
1
3
2
1
46
40
22
155
133
74
170
145
81
130
112
62
122
104
58
137
117
65
181
159
101
197
179
133
180
157
98
138
118
66
108
93
52
100
85
48
101
87
48
105
90
50
111
95
53
111
95
53
110
94
53
121
104
58
158
135
76
188
168
115
203
188
147
208
194
157
205
190
151
201
185
143
201
185
143
201
185
143
200
184
140
197
180
134
194
175
127
194
175
127
194
176
128
194
175
127
195
177
129
195
178
131
195
177
129
185
164
109
163
139
78
137
117
65
134
115
64
143
122
68
161
138
77
183
161
104
195
177
130
184
162
106
179
157
97
182
160
102
189
169
117
193
174
125
192
173
123
190
170
119
190
171
120
186
165
111
188
168
115
193
175
126
177
153
91
52
44
25
3
2
1
1
1
1
1
1
1
1
1
1
1
1
1
0
0
0
0
0
0
0
0
0
0
0
0
0
0
0
0
0
0
1
1
1
1
1
1
5
5
3
75
65
36
176
152
90
182
161
103
173
148
83
166
142
80
175
151
88
193
174
125
198
180
135
181
158
100
139
119
66
103
88
49
96
82
46
97
83
47
98
84
47
99
85
47
100
86
48
106
91
51
110
94
52
125
107
60
169
145
81
187
167
114
197
180
134
199
182
138
199
182
138
200
183
140
205
190
150
206
191
152
198
181
136
192
174
124
190
170
119
188
168
116
189
169
117
189
169
117
184
163
107
178
155
94
157
134
75
137
117
66
127
109
61
127
109
61
133
113
63
135
116
65
156
134
75
170
146
81
168
144
80
170
146
81
175
151
88
182
160
102
184
162
106
183
162
105
183
162
105
190
170
119
190
171
120
194
175
126
196
178
131
187
166
113
87
75
42
5
5
3
1
1
1
1
1
1
1
1
1
1
1
1
0
0
0
0
0
0
0
0
0
0
0
0
0
0
0
0
0
0
1
1
1
1
1
1
7
6
3
90
77
43
180
158
99
186
166
112
188
168
116
188
168
116
188
167
114
188
167
114
188
167
114
180
158
99
145
124
69
131
112
63
116
100
56
103
88
49
104
89
50
103
88
49
100
85
48
101
86
48
109
93
52
132
113
63
173
148
83
185
163
108
197
179
133
203
188
147
201
185
143
199
183
139
199
183
139
196
179
132
192
173
124
192
172
122
190
170
118
187
167
113
188
168
116
185
164
109
174
149
85
152
130
73
133
114
64
135
116
65
133
113
63
134
115
64
141
121
67
158
135
75
165
141
79
156
133
74
158
135
76
164
140
78
161
138
77
154
132
74
162
139
77
181
158
100
195
177
130
201
185
143
198
180
135
195
177
130
193
175
126
190
170
119
112
96
54
7
6
3
1
1
1
1
1
1
1
1
1
1
1
1
0
0
0
0
0
0
0
0
0
0
0
0
0
0
0
0
0
0
1
1
1
1
1
1
7
6
3
90
77
43
178
155
94
189
169
117
197
180
134
198
180
135
199
182
137
194
175
126
193
174
125
187
167
113
177
153
92
170
146
82
141
120
67
111
95
53
106
90
50
106
90
50
104
89
50
107
92
51
124
106
59
162
138
77
180
158
99
186
165
111
193
175
126
200
183
140
198
180
135
196
178
131
192
173
123
186
165
110
181
158
100
186
165
111
191
172
121
192
172
122
189
169
117
182
159
102
157
134
75
139
119
67
160
137
77
162
139
78
144
123
69
142
122
68
142
122
68
162
138
77
171
146
82
168
144
80
168
144
80
152
130
73
116
99
55
115
98
55
133
114
64
172
147
82
195
177
129
207
193
155
202
186
145
198
181
136
195
177
130
189
170
118
109
93
52
6
5
3
1
1
1
1
1
1
1
1
1
1
1
1
0
0
0
0
0
0
0
0
0
0
0
0
0
0
0
0
0
0
1
1
1
1
1
1
6
5
3
79
68
38
181
158
99
193
174
125
196
179
133
197
179
133
200
183
140
199
183
139
199
182
138
199
182
137
186
165
110
160
137
77
122
104
58
112
96
54
111
95
53
113
97
54
129
111
62
155
133
74
164
140
79
166
142
80
165
141
79
160
137
77
156
134
75
172
147
82
183
162
105
187
166
112
181
158
99
169
145
81
154
131
73
171
146
82
184
162
106
185
164
109
188
167
114
182
160
102
153
131
73
154
132
74
175
151
88
162
138
77
132
113
63
130
111
62
148
127
71
164
140
78
151
129
72
134
115
64
144
123
69
134
114
64
121
104
58
122
104
58
139
119
66
178
154
93
194
176
128
203
187
145
205
189
149
206
191
152
199
183
139
189
169
116
87
74
42
4
4
2
1
1
1
1
1
1
1
1
1
1
1
1
0
0
0
0
0
0
0
0
0
0
0
0
0
0
0
0
0
0
1
1
1
1
1
1
3
3
1
51
44
24
171
146
82
187
166
112
192
172
122
194
175
126
195
178
131
192
173
124
190
171
120
188
168
115
176
152
89
126
108
60
114
97
54
114
98
55
114
98
55
121
104
58
123
105
59
133
114
64
142
121
68
145
124
69
165
141
79
137
117
66
111
95
53
126
108
60
159
136
76
178
155
94
179
156
96
177
153
91
152
130
73
137
118
66
149
127
71
153
131
73
156
133
74
161
138
77
166
142
79
174
150
86
174
150
86
160
137
76
136
117
65
123
106
59
127
109
61
139
119
66
129
110
62
117
100
56
134
114
64
155
132
74
175
151
88
178
154
93
183
161
104
189
169
118
190
170
118
197
179
133
209
196
160
216
205
174
203
188
147
177
153
91
46
39
22
3
3
2
1
1
1
1
1
1
1
1
1
1
1
1
0
0
0
0
0
0
0
0
0
0
0
0
0
0
0
1
1
1
1
1
1
1
1
1
2
1
1
15
13
7
121
104
58
185
164
109
187
166
112
192
172
122
190
170
118
183
161
104
169
144
81
175
151
88
174
150
86
131
112
63
123
105
59
124
106
59
124
106
59
123
105
59
115
98
55
110
94
52
117
100
56
128
110
61
140
120
67
139
119
67
128
109
61
127
109
61
136
116
65
144
123
69
148
127
71
149
127
71
130
112
62
119
102
57
127
109
61
141
120
67
139
119
67
145
124
69
168
144
81
173
149
85
155
132
74
144
123
69
135
116
65
140
120
67
162
138
77
161
138
77
134
115
64
118
101
56
122
104
58
156
133
74
170
145
81
172
148
82
174
149
85
176
152
89
183
162
105
191
172
122
201
185
142
205
190
150
195
177
130
124
106
59
13
11
6
2
2
1
1
1
1
1
1
1
1
1
1
0
0
0
0
0
0
0
0
0
0
0
0
0
0
0
0
0
0
0
0
0
1
1
1
1
1
1
1
1
1
4
3
2
52
44
25
169
144
81
190
171
119
195
177
130
190
171
120
183
161
104
177
153
92
174
150
87
159
136
76
147
126
71
143
123
69
127
109
61
121
104
58
118
101
57
118
101
57
115
98
55
118
101
56
140
120
67
162
139
78
174
149
85
173
148
83
167
143
80
167
143
80
152
130
72
133
114
63
134
114
64
144
123
69
158
135
75
164
140
78
155
133
74
146
125
70
156
133
74
171
147
82
178
154
94
173
148
83
154
132
74
150
129
72
142
122
68
137
117
66
129
110
62
122
104
58
115
98
55
116
100
56
117
100
56
120
103
57
133
114
64
150
128
72
169
145
81
186
166
111
194
176
128
193
174
126
193
174
125
169
145
81
49
42
24
3
2
1
1
1
1
1
1
1
1
1
1
1
1
1
0
0
0
0
0
0
0
0
0
0
0
0
0
0
0
0
0
0
0
0
0
0
0
0
1
1
1
1
1
1
2
2
1
8
7
4
84
72
40
184
162
106
198
180
135
197
179
133
190
171
120
184
163
107
182
159
101
174
150
86
171
147
82
174
150
87
154
132
74
131
112
63
126
108
60
134
115
64
141
121
67
158
135
76
176
152
89
175
150
87
181
158
100
182
161
103
176
152
89
163
140
78
161
138
77
156
133
75
155
133
74
168
144
81
176
153
91
178
155
94
179
156
97
186
166
112
186
165
111
179
156
97
178
155
94
175
151
87
159
136
76
149
128
71
141
121
67
130
112
62
122
104
58
109
93
52
108
93
52
107
92
51
108
93
52
111
95
53
111
95
53
119
102
57
150
129
72
186
166
112
196
178
131
195
177
129
182
159
101
85
73
41
7
6
3
3
2
1
1
1
1
1
1
1
1
1
1
1
1
1
0
0
0
0
0
0
0
0
0
0
0
0
0
0
0
0
0
0
0
0
0
0
0
0
0
0
0
1
1
1
1
1
1
3
2
1
15
13
7
119
102
57
197
179
133
204
189
149
191
171
121
179
157
97
179
156
96
180
157
98
185
163
108
188
168
115
186
166
112
180
158
99
180
158
99
180
158
99
169
145
81
168
143
80
176
153
91
170
146
81
163
140
78
174
149
85
171
146
82
141
121
68
130
111
62
137
117
66
144
123
69
155
133
74
168
143
80
174
150
86
181
159
101
189
170
118
189
169
117
184
163
107
178
155
94
164
140
78
156
134
75
157
135
75
159
136
76
158
135
75
141
120
67
119
102
57
107
92
51
104
89
50
106
90
50
112
96
54
107
92
51
118
101
56
168
144
80
186
165
110
188
168
115
186
165
110
111
95
53
16
13
7
3
2
1
1
1
1
1
1
1
1
1
1
1
1
1
0
0
0
0
0
0
0
0
0
0
0
0
0
0
0
0
0
0
0
0
0
0
0
0
0
0
0
0
0
0
0
0
0
1
1
1
1
1
1
3
2
1
22
19
11
134
114
64
203
187
146
200
183
139
180
158
99
174
149
85
179
156
95
186
165
111
190
170
118
191
172
122
194
175
127
193
174
125
185
163
108
174
149
85
173
148
83
172
147
82
159
136
76
151
129
72
151
129
72
151
129
72
143
123
69
139
119
66
131
112
63
131
112
62
136
116
65
140
120
67
144
123
69
156
134
75
175
150
87
178
154
93
181
158
99
173
148
83
146
125
70
148
126
71
174
150
86
182
160
102
173
149
85
141
121
68
116
100
56
108
92
52
107
91
51
106
90
50
104
89
50
109
93
52
139
119
66
181
159
101
186
165
111
178
155
94
108
92
51
18
16
9
3
2
1
1
1
1
1
1
1
1
1
1
1
1
1
0
0
0
0
0
0
0
0
0
0
0
0
0
0
0
0
0
0
0
0
0
0
0
0
0
0
0
0
0
0
0
0
0
0
0
0
1
1
1
1
1
1
1
1
1
2
1
1
22
19
10
109
94
52
184
163
107
196
178
131
189
169
116
181
159
100
180
158
99
181
159
101
182
160
102
187
166
113
193
174
125
188
167
114
176
153
91
169
145
81
160
137
77
146
125
70
132
113
63
128
110
61
126
108
60
127
108
61
128
109
61
126
107
60
122
105
59
126
108
60
131
112
62
132
113
63
139
119
66
149
127
71
150
128
72
150
128
72
137
117
65
133
113
63
149
128
71
156
134
75
149
127
71
132
113
63
116
100
56
109
94
52
110
94
52
111
95
53
108
93
52
113
96
54
151
129
72
186
165
110
194
175
126
174
150
86
81
70
39
11
9
5
3
2
1
1
1
1
1
1
1
1
1
1
1
1
1
0
0
0
0
0
0
0
0
0
0
0
0
0
0
0
0
0
0
0
0
0
0
0
0
0
0
0
0
0
0
0
0
0
0
0
0
0
0
0
0
0
0
0
0
0
1
1
1
1
1
1
1
1
1
7
6
3
59
51
28
143
122
68
189
169
117
197
179
133
194
176
127
186
166
112
182
160
102
182
160
102
191
172
122
192
173
122
177
154
93
154
132
74
145
124
69
138
118
66
136
116
65
132
113
63
124
106
59
120
103
58
115
98
55
114
97
54
116
100
56
122
104
58
126
108
60
123
105
59
127
109
61
131
112
63
129
110
61
126
108
60
130
111
62
139
119
66
146
125
70
132
113
63
121
103
58
116
99
55
108
93
52
106
91
51
105
90
50
110
94
52
119
102
57
147
126
70
184
163
107
187
167
114
138
118
66
51
43
24
4
4
2
1
1
1
1
1
1
1
1
1
1
1
1
0
0
0
0
0
0
0
0
0
0
0
0
0
0
0
0
0
0
0
0
0
0
0
0
0
0
0
0
0
0
0
0
0
0
0
0
0
0
0
0
0
0
0
0
0
0
0
0
0
0
0
0
0
0
0
0
0
0
0
0
1
1
1
3
2
1
13
11
6
78
67
37
162
139
77
197
179
134
206
191
152
201
185
143
189
169
117
182
160
103
184
163
107
181
159
101
173
148
84
168
144
81
150
129
72
137
117
65
127
109
61
117
100
56
114
98
55
111
95
53
112
96
53
116
99
56
120
103
57
125
107
60
127
109
61
132
113
63
130
111
62
127
109
61
133
114
64
145
124
70
157
135
75
158
136
76
137
117
65
120
102
57
111
95
53
105
90
50
100
86
48
104
89
50
113
96
54
133
114
64
158
135
75
140
119
67
76
65
36
12
10
6
2
2
1
1
1
1
1
1
1
1
1
1
0
0
0
0
0
0
0
0
0
0
0
0
0
0
0
0
0
0
0
0
0
0
0
0
0
0
0
0
0
0
0
0
0
0
0
0
0
0
0
0
0
0
0
0
0
0
0
0
0
0
0
0
0
0
0
0
0
0
0
0
0
0
0
0
0
0
1
1
1
1
1
1
1
1
1
3
2
1
20
18
10
78
67
37
169
145
81
200
184
141
209
196
159
203
188
147
191
172
122
183
161
104
182
159
101
182
160
102
175
151
88
173
148
83
162
139
78
149
128
71
135
116
65
127
108
61
122
105
59
134
114
64
136
116
65
140
120
67
138
118
66
135
116
65
134
115
64
136
117
65
145
124
70
153
131
73
166
142
79
162
138
77
134
115
64
115
99
55
110
94
52
113
97
54
118
101
56
113
96
54
110
94
53
93
80
45
47
40
22
13
11
6
1
1
1
1
1
1
1
1
1
1
1
1
0
0
0
0
0
0
0
0
0
0
0
0
0
0
0
0
0
0
0
0
0
0
0
0
0
0
0
0
0
0
0
0
0
0
0
0
0
0
0
0
0
0
0
0
0
0
0
0
0
0
0
0
0
0
0
0
0
0
0
0
0
0
0
0
0
0
0
0
0
0
0
0
0
0
0
0
0
0
1
1
1
1
1
1
1
1
1
3
2
1
11
10
5
57
49
27
105
89
50
166
142
79
189
169
118
196
178
132
194
175
127
189
169
116
186
166
111
187
167
114
187
167
114
186
165
111
186
165
111
182
160
103
179
157
97
182
160
102
179
156
95
175
151
87
164
140
78
146
125
70
133
113
63
130
111
62
128
109
61
127
109
61
124
106
59
117
100
56
111
95
53
116
99
55
115
98
55
107
92
51
84
72
40
48
41
23
24
20
11
4
4
2
1
1
1
1
1
1
1
1
1
1
1
1
0
0
0
0
0
0
0
0
0
0
0
0
0
0
0
0
0
0
0
0
0
0
0
0
0
0
0
0
0
0
0
0
0
0
0
0
0
0
0
0
0
0
0
0
0
0
0
0
0
0
0
0
0
0
0
0
0
0
0
0
0
0
0
0
0
0
0
0
0
0
0
0
0
0
0
0
0
0
0
0
0
0
0
0
0
0
0
1
1
1
1
1
1
0
0
0
1
1
1
1
1
1
3
2
1
6
5
3
30
26
14
78
67
37
117
100
56
148
126
71
177
153
91
185
163
108
190
170
118
189
169
117
188
167
114
185
164
109
178
155
94
170
145
81
168
143
80
159
136
76
141
121
68
130
111
62
122
105
58
115
99
55
112
96
54
105
90
50
94
80
45
82
70
39
64
55
31
55
47
26
38
32
18
11
9
5
3
2
1
1
1
1
1
1
1
1
1
1
0
0
0
0
0
0
0
0
0
0
0
0
0
0
0
0
0
0
0
0
0
0
0
0
0
0
0
0
0
0
0
0
0
0
0
0
0
0
0
0
0
0
0
0
0
0
0
0
0
0
0
0
0
0
0
0
0
0
0
0
0
0
0
0
0
0
0
0
0
0
0
0
0
0
0
0
0
0
0
0
0
0
0
0
0
0
0
0
0
0
0
0
0
0
0
0
0
0
0
0
0
0
0
0
0
0
0
0
0
0
0
1
1
1
1
1
1
1
1
1
1
1
1
1
1
1
3
2
1
8
7
4
20
17
10
30
26
15
50
43
24
73
63
35
93
79
44
105
90
50
108
92
52
99
85
47
88
75
42
85
73
41
76
65
36
64
54
30
49
42
24
40
34
19
32
28
16
21
18
10
9
8
4
5
4
2
3
2
1
1
1
1
1
1
1
1
1
1
1
1
1
0
0
0
0
0
0
0
0
0
0
0
0
0
0
0
0
0
0
0
0
0
0
0
0
0
0
0
0
0
0
0
0
0
0
0
0
0
0
0
0
0
0
0
0
0
0
0
0
0
0
0
0
0
0
0
0
0
0
0
0
0
0
0
0
0
0
0
0
0
0
0
0
0
0
0
0
0
0
0
0
0
0
0
0
0
0
0
0
0
0
0
0
0
0
0
0
0
0
0
0
0
0
0
0
0
0
0
0
0
0
0
0
0
0
0
0
0
0
0
0
0
0
0
0
0
0
0
0
0
1
1
1
1
1
1
1
1
1
1
1
1
1
1
1
1
1
1
1
1
1
1
1
1
1
1
1
1
1
1
1
1
1
1
1
1
1
1
1
1
1
1
1
1
1
1
1
1
1
1
1
1
1
1
1
1
1
1
1
1
1
1
1
1
1
1
1
1
1
1
1
1
0
0
0
0
0
0
0
0
0
0
0
0
0
0
0
0
0
0
0
0
0
0
0
0
0
0
0
0
0
0
0
0
0
0
0
0
0
0
0
0
0
0
0
0
0
0
0
0
0
0
0
0
0
0
0
0
0
0
0
0
0
0
0
0
0
0
0
0
0
0
0
0
0
0
0
0
0
0
0
0
0
0
0
0
0
0
0
0
0
0
0
0
0
0
0
0
0
0
0
0
0
0
0
0
0
0
0
0
0
0
0
0
0
0
0
0
0
0
0
0
0
0
0
0
0
0
0
0
0
0
0
0
0
0
0
0
0
0
0
0
0
0
0
0
0
0
0
0
0
0
0
0
0
0
0
0
0
0
0
1
1
1
1
1
1
1
1
1
1
1
1
1
1
1
1
1
1
0
0
0
0
0
0
0
0
0
0
0
0
0
0
0
0
0
0
0
0
0
0
0
0
0
0
0
0
0
0
0
0
0
0
0
0
0
0
0
0
0
0
0
0
0
0
0
0
0
0
0
0
0
0
0
0
0
0
0
0
0
0
0
0
0
0
0
0
0
0
0
0
0
0
0
0
0
0
0
0
0
0
0
0
0
0
0
0
0
0
0
0
0
0
0
0
0
0
0
0
0
0
0
0
0
0
0
0
0
0
0
0
0
0
0
0
0
0
0
0
0
0
0
0
0
0
0
0
0
0
0
0
0
0
0
0
0
0
0
0
0
0
0
0
0
0
0
0
0
0
0
0
0
0
0
0
0
0
0
0
0
0
0
0
0
0
0
0
0
0
0
0
0
0
0
0
0
0
0
0
0
0
0
0
0
0
0
0
0
0
0
0
0
0
0
0
0
0
0
0
0
0
0
0
0
0
0
0
0
0
0
0
0
0
0
0
0
0
0
0
0
0
0
0
0
0
0
0
0
0
0
0
0
0
0
0
0
0
0
0
0
0
0
0
0
0
0
0
0
0
0
0
0
0
0
0
0
0
0
0
0
0
0
0
0
0
0
0
0
0
0
0
0
0
0
0
0
0
0
0
0
0
0
0
0
0
0
0
0
0
0
0
0
0
0
0
0
0
0
0
0
0
0
0
0
0
0
0
0
0
0
0
